<svg xmlns="http://www.w3.org/2000/svg" version="1.1" xmlns:xlink="http://www.w3.org/1999/xlink" xmlns:svgjs="http://svgjs.com/svgjs" width="512" height="512" x="0" y="0" viewBox="0 0 32 32" style="enable-background:new 0 0 512 512" xml:space="preserve" class=""><g><path d="M18.121 20.946a1 1 0 0 1 .078 1.327l-3.613 3.622a6 6 0 0 1-8.64-8.322l3.691-3.697a1 1 0 0 1 1.492 1.327l-3.613 3.622a4 4 0 0 0 5.511 5.794l3.68-3.673a1 1 0 0 1 1.414 0zm7.777-14.847a6 6 0 0 1 .156 8.322l-3.691 3.697a1 1 0 0 1-1.492-1.327l3.613-3.622a4 4 0 0 0-5.511-5.794l-3.68 3.673a1 1 0 0 1-1.492-1.327L17.414 6.1a6 6 0 0 1 8.484 0z" fill="#000000" data-original="#000000" class=""></path><path d="M20.949 11.048a1 1 0 0 1 .078 1.327l-8.562 8.571a1 1 0 0 1-1.492-1.327l8.562-8.571a1 1 0 0 1 1.414 0z" fill="#000000" data-original="#000000" class=""></path></g></svg>